<svg width="144" height="168" viewBox="0 0 144 168" fill="none" xmlns="http://www.w3.org/2000/svg">
<path d="M120 51C120 53.7614 122.239 56 125 56H136C138.122 56 140.157 56.8429 141.657 58.3431C143.157 59.8434 144 61.8783 144 64V160C144 162.122 143.157 164.157 141.657 165.657C140.157 167.157 138.122 168 136 168H8C5.87827 168 3.84344 167.157 2.34315 165.657C0.842854 164.157 0 162.122 0 160V64C0 61.8783 0.842854 59.8434 2.34315 58.3431C3.84344 56.8429 5.87827 56 8 56H19C21.7614 56 24 53.7614 24 51V48C24 35.2696 29.0571 23.0606 38.0589 14.0589C47.0606 5.05713 59.2696 0 72 0C84.7304 0 96.9394 5.05713 105.941 14.0589C114.943 23.0606 120 35.2696 120 48V51ZM61.6433 116.195C63.0049 117.352 64 118.956 64 120.743V131C64 133.761 66.2386 136 69 136H75C77.7614 136 80 133.761 80 131V120.743C80 118.956 80.9951 117.352 82.3567 116.195C84.2826 114.56 85.8047 112.482 86.7821 110.123C88.1299 106.868 88.3664 103.261 87.4548 99.8585C86.5432 96.4564 84.5345 93.4501 81.7402 91.3059C78.9459 89.1618 75.5221 87.9996 72 87.9996C68.4779 87.9996 65.0541 89.1618 62.2598 91.3059C59.4655 93.4501 57.4568 96.4564 56.5452 99.8585C55.6336 103.261 55.8701 106.868 57.2179 110.123C58.1953 112.482 59.7174 114.56 61.6433 116.195ZM99 56C101.761 56 104 53.7614 104 51V48C104 39.5131 100.629 31.3737 94.6274 25.3726C88.6263 19.3714 80.4869 16 72 16C63.5131 16 55.3737 19.3714 49.3726 25.3726C43.3714 31.3737 40 39.5131 40 48V51C40 53.7614 42.2386 56 45 56H99Z" fill="white"/>
</svg>
